/* XPM */
static char *ca7e47193a92421ada7404d9f980a7764H80ojneypEcD9sf[] = {
/* columns rows colors chars-per-pixel */
"64 64 253 2 ",
"   c None",
".  c #2A0C06",
"X  c #2A160C",
"o  c #2D1A0E",
"O  c #27140A",
"+  c #331B0E",
"@  c #38170B",
"#  c #2D1B13",
"$  c #2C1915",
"%  c #331D12",
"&  c #3A1D13",
"*  c #341D17",
"=  c #320E07",
"-  c #352114",
";  c #3C2215",
":  c #35241C",
">  c #3B241A",
",  c #3C281E",
"<  c #2A201D",
"1  c #3D2B23",
"2  c #372620",
"3  c #440904",
"4  c #48190B",
"5  c #461B14",
"6  c #561C15",
"7  c #531407",
"8  c #42251A",
"9  c #442A1C",
"0  c #4C2B1C",
"q  c #472416",
"w  c #542C1C",
"e  c #59281B",
"r  c #53321D",
"t  c #5D341D",
"y  c #532813",
"u  c #65291B",
"i  c #752B17",
"p  c #63331D",
"a  c #6D331A",
"s  c #6D3015",
"d  c #432D23",
"f  c #4B2D22",
"g  c #492923",
"h  c #522D22",
"j  c #5B2E22",
"k  c #582A25",
"l  c #4C3224",
"z  c #4C352A",
"x  c #463329",
"c  c #523324",
"v  c #5C3323",
"b  c #5B352B",
"n  c #543B2D",
"m  c #5B3A2C",
"M  c #573827",
"N  c #4D3C33",
"B  c #5B3D32",
"V  c #573B33",
"C  c #682C26",
"Z  c #633323",
"A  c #643B25",
"S  c #62352B",
"D  c #633B2B",
"F  c #6B3C2B",
"G  c #6B3826",
"H  c #7C3C24",
"J  c #733E2B",
"K  c #7D3D2C",
"L  c #743625",
"P  c #643D32",
"I  c #6B3D32",
"U  c #763B33",
"Y  c #732A2B",
"T  c #5D412E",
"R  c #5C4133",
"E  c #59433A",
"W  c #63422E",
"Q  c #6B412C",
"!  c #73432C",
"~  c #7D442C",
"^  c #734125",
"/  c #654334",
"(  c #6B4334",
")  c #65443A",
"_  c #6C453A",
"`  c #6D4A3A",
"'  c #684A39",
"]  c #734333",
"[  c #7C4332",
"{  c #744934",
"}  c #7C4A33",
"|  c #74463A",
" . c #7B463A",
".. c #734B3C",
"X. c #7C4B3D",
"o. c #77523D",
"O. c #6D513D",
"+. c #5A4940",
"@. c #4F4640",
"#. c #694C42",
"$. c #754E42",
"%. c #7D4C41",
"&. c #6A5548",
"*. c #725444",
"=. c #7C5345",
"-. c #795949",
";. c #6E5A52",
":. c #7A6354",
">. c #8C311F",
",. c #853A26",
"<. c #873C34",
"1. c #973628",
"2. c #84442C",
"3. c #8B4A2D",
"4. c #89452B",
"5. c #91472D",
"6. c #844433",
"7. c #844B34",
"8. c #8B4C33",
"9. c #844B3C",
"0. c #894638",
"q. c #934D33",
"w. c #964737",
"e. c #8B533C",
"r. c #88563C",
"t. c #945134",
"y. c #94533A",
"u. c #9B533A",
"i. c #9C5A3D",
"p. c #9B5536",
"a. c #A54834",
"s. c #A45B3C",
"d. c #A75539",
"f. c #B55C3E",
"g. c #A4623C",
"h. c #834C42",
"j. c #894B43",
"k. c #954C42",
"l. c #835344",
"z. c #8C5243",
"x. c #8D5B4B",
"c. c #875849",
"v. c #9D5243",
"b. c #9C5B44",
"n. c #94554A",
"m. c #945A4B",
"M. c #9C5C4C",
"N. c #925844",
"B. c #995D52",
"V. c #8A5C51",
"C. c #A45D44",
"Z. c #A45C4C",
"A. c #AC5D4A",
"S. c #A95844",
"D. c #B35C47",
"F. c #A25E52",
"G. c #A14F46",
"H. c #99634C",
"J. c #8A6A56",
"K. c #866855",
"L. c #9D6353",
"P. c #986657",
"I. c #8A6A50",
"U. c #AB6344",
"Y. c #A5644B",
"T. c #AD644C",
"R. c #A86749",
"E. c #B3644C",
"W. c #B26B4C",
"Q. c #BA6649",
"!. c #A36454",
"~. c #A86958",
"^. c #B66B53",
"/. c #BC6D53",
"(. c #B46957",
"). c #AA7157",
"_. c #B5745B",
"`. c #BA7558",
"'. c #AD704E",
"]. c #887264",
"[. c #906F63",
"{. c #B97765",
"}. c #AA7467",
"|. c #C46A4B",
" X c #C6714C",
".X c #C76D54",
"XX c #C4745B",
"oX c #C47B5C",
"OX c #CC7B5B",
"+X c #C67556",
"@X c #D77B58",
"#X c #E27D5C",
"$X c #C57D63",
"%X c #CA7B67",
"&X c #CF7762",
"*X c #BA825D",
"=X c #B1866E",
"-X c #8E8368",
";X c #C8825D",
":X c #D9825D",
">X c #E2835F",
",X c #CB8767",
"<X c #D88766",
"1X c #D88673",
"2X c #DA977B",
"3X c #CA886F",
"4X c #E58B63",
"5X c #E68A67",
"6X c #F28E6B",
"7X c #E7946A",
"8X c #F5966A",
"9X c #E79876",
"0X c #F49C73",
"qX c #FC9C76",
"wX c #E88671",
"eX c #ECA27B",
"rX c #FEA47C",
"tX c #F9A77A",
"yX c #F7B07B",
"uX c #D5A87B",
"iX c #B89082",
"pX c #E59B82",
"aX c #F09884",
"sX c #DAB79D",
"dX c #C5A188",
"fX c #EDA683",
"gX c #FEAC83",
"hX c #F8AA87",
"jX c #FDB687",
"kX c #FFB995",
"lX c #F0AF96",
"zX c #F8BAA2",
"xX c #D7BFA2",
"cX c #FFC78E",
"vX c #FECB93",
"bX c #FFCC9B",
"nX c #FFD59A",
"mX c #DCC6A5",
"MX c #FFD4A3",
"NX c #FFDAAC",
"BX c #FFD8A8",
"VX c #FFDCB3",
"CX c #FED8B6",
"ZX c #F3CEAA",
"AX c #FCE5AC",
"SX c #FEE3B6",
"DX c #FFE7B8",
"FX c #FAF5B8",
"GX c #E8E3B8",
"HX c #FFE39D",
"JX c #F9FCC7",
"KX c #F4E7CB",
"LX c #F7FFFC",
/* pixels */
"                                                                                                                                ",
"                                                                                                                                ",
"                                                                                                                                ",
"                                                                                                                                ",
"                                                  E ;.:.K.J.:.*.-.&.                                                            ",
"                                            @.].].J.K.J.*.K.-.c.K.K.[.J.' 1                                                     ",
"                                        E :.&.*.*.*.O./ m M M W *.' ( -.K.K.J.].                                                ",
"                                    +.+.n ' n z E E z > l l ) ` ) R c r W / -.o.[.#.&.x                                         ",
"                                    ;.&.9 x z z N N d x & ; l c ' ) / q q 0 M m ` I.J.I.J.x                                     ",
"                                  < +.+.x : , d x x , : : % & d f l R z > ; 8 0 m W { c.J.[.*.1                                 ",
"                                o 9 r l N N d : d 1 - N O # - - > l d E : % % ; d c / o...l.-./ d                               ",
"                          &.GXJXJXFXNXhXr.R , , 1 : 1 : x 1 - z V R l l x d - + - > 8 M ( A ( O.' n N                           ",
"                      -XGXJXJXJXFXAXvXeXr.8 * o # 2 * 1 * o x x 8 l c l 8 9 - # - - + n m r A W -.J.' :                         ",
"              =XmXJXJXJXFXFXFXBXcX<XC.e.( 8 * # X $ 2 : : - O X d x l l n f - O X o # : l c T / W o./ T                         ",
"            CXSXDXSXBXjXyX4XeXeX`.7.F ( / M & + & - > 1 : : : : : * ; f c l l d o X X % 9 ; 8 9 r m T M :                       ",
"          zXVXSXSXSXMXgX0X<Xp.t.} v c M m Q } z.m.).}.%.$.m d > > , , 8 8 l d - * X X % : & ; 9 M / #./ l                       ",
"        sXCXSXDXDXAXMXbXbXjX`.7.v c c h F L._.3X2X2X2X3Xz.z...b 9 8 > > + + d d > % X # # o - d l r r W / :.                    ",
"        CXVXVXSXAXNXMXvXjXfX'.J D & & ] ~.2X9XkXkXhXhX9X$X(.M.7.7.} ] ! ! ! Q Q ( v 5 % $ O O o > l m ` -.:.                    ",
"      CXNXNXNXNXNXBXbXjXeX,XY.[ e q X.,XhXkXkXkXkXjXeX9X$XT.Y.Z.C.C.C.C.C.U.U.T.T.R.R.i.y + X X % 0 W v l 8 9                   ",
"      BXNXCXNXBXMXkXtX9X,XoXC.e.e C {.9XhXhXjXhXtX7X<X$XE.(.T.A.A.T.E.^.^././.+XOX<X5X7XOX4.& % % 8 A =Xr.c l z                 ",
"      BXNXBXBXbXhX9X,X;X_.Y.u.6.6  .$X9XhXhXhXfX<X,X$X$XoX^.E.T.T.E.Q.+X+XOXOXOX:X4X0XtX0X0X:Xy.@ & c A 7.'.r.c                 ",
"      BXVXNXbXtX<X`._.'.Y.b.8.6.6 h.$XpXfXpX2X,X{._._._._.^.^.^.E.E./.+X+XOXOX:X:X4X8XrXrXrXqX4X|.4 q l._.s.;X*X                ",
"      DXAXnXyX<X`.'.Y.Y.b.y.8.6.y h.,X2XpX*Xl.m b m ( l.H.!._.`.`./..X+XOXOX@X<X4X4X5X8XrXrXrXqX6XOX3 y 6.;XcXvXuX              ",
"      BXnXjX7X;X^.R.Y.i.t.q.8.K u x.{.2X} 0 8 * * * $ $ X + v b.`.XX+XOXOX,X:X5X5X9X0XqXrXgXrXrXqX8X+Xu w.,XyXnXBXH.            ",
"      cXgXtX7X,X_.R.C.i.q.q.w.K U c.).c.M b #.-.*.) V > $ $ * % D !.`.OXOXOX@X<X4X5X9XrXgXgXrXqX0X8X6Xp.w.+XtXjXvXnX            ",
"      7X<X,XoX`.W.Y.b.u.q.5.4.u U x.~.L.P.}.}.}.P.B.x.c...B 9 > - D b.W./.+X+XOX+XW.b.M.).*X;X<X0X0X6X4X>.f.:XgXcXvXnX          ",
"      ;X`.W.T.U.s.s.u.q.q.5.L u 9.n.L.~.}.}.~.M.n.n.n.z.9.h.l.=.P m e.Z.T.^.E.u.e.v 8 * % X 9 ) A `.4X4X4.d.|.:XtXcXvXMX        ",
"      W.U.s.s.i.i.u.q.5.4.H 7 u 9.z.B.~.~.!.b.z.9.9. .X. . .[ 9.l.z.z.M.Z.T.A.y.[ v w ; ; + @ & 0 r ).<XU.5.Q.@X7XjXcXnX        ",
"      p.p.p.p.q.t.t.4.,.H 4 5 J 9.z.B.P.L.M.9.I h #.&.#.E v u G J 9.n.B.!.XXoXE.8.7.2.7.0.e.b.Y.'._.9.[ !.i a.f.@X0XjXnXHX      ",
"      t.3.3.3.3.3.2.H a 5 . h K 0.m.!.!.L.!.9.I K.;.1 * E ;.) u G U 9.B.!.5XrX5Xq.~ 2.[ K ~ 8.i.U.W.`.'.b.7 1.a.d.|.5XyXvX      ",
"      3.3.3.3.2.2.H a e = @ v [ 0.!.`.,X{._.~.L.c.( c ; ; P v v Z ]  .j.(.qXjXjXd.K L Z S v v H.{.q.d.^.U.7 ,.a.d.D.D.Q. X      ",
"        2.2.2.,.H H a 4 @ 5 F [ z.`.9X9XeX,XW.y.e.e.X.] F G Z Z Z I h.m.1XCXbXbX7X3.e _ V X d =X{ H q.U.^.6 u ,.a.d.d.S.E.      ",
"          6.K 0.<.,.<.[ e w I [ M.$X9X9XfXfX9X<X^.8.[ [ ] ] ] [ h.j.B.{.hXBXkXNXgXQ.a Z G v 0 c.L.6.2.U.`.a y L 5.p.d.U.T.      ",
"            5 k.>.w.k.B.I S ] h.!.XX<X1X1X1X<X<XOXXXT.u.6.9.9.j.z.m.~.1XhXzXgXkXkX8X+XH u a ,.q.T.W.+X:X:Xt.4 G H 3.p.s.C.      ",
"            }.>.&X{.Z.!. .| l.x.B.{.%X%X%X%X&XXXQ././.A.C.w.w.k.n.!.{.aXzXaXwX6XkXqX6X<XS.u.u.d.d. X4X8XtX;X7 p ~ 2.3.t.p.      ",
"            S..X/.d.,.q. .$.V.P.P.~.(.(.(.E.A.A.A.A.A.A.A.v.w.k.n.3XpX&X(.D.D.D..X#X4X4X@X@X:X<X0XrXjXjXgXrX7 L ~ 4.4.3.5.      ",
"            XXS.a.a.w.{.| ) =.V.P.~.~.!.!.!.F.Z.Z.Z.S.S.C.v.k.0.<.!.<.3 4 n.y.w.<.,..X@X@X@X>X5X8XqXrXqX8X8Xd.4.p.g.'.H.i.      ",
"            %X%X1.1.w.{.%._ _ =.V.L.!.!.F.Z.Z.Z.F.M.C.v.v.v.B.F.k.k.j.I | X.h.U u L a.6X@X@X@X#X4X6X8X6X6X5X XW.] /             ",
"            1X<XlX%XS.{.h.) ) $.x.P.L.L.M.M.Z.Z.Z.M.z.9.j.n.L.~.P.h.U h 5 b S I Z  .9XgXgX6X.X|.@X@X@X:X:X@X|.d.=               ",
"              pX1X+XD.E.l.P ) $.l.c.x.m.m.M.M.M.B.F S S S P ..( D S b h g f 0 D S I 2.Q.4X4XQ.f.f.Q.|.|. XOXd.Q.e.              ",
"                .XD.d.d.N...$.-.-.=.%.l.z.x.m.m.F h 0 0 h b P I P S b w j v 5 5 F F J J y.R.8.2.q.d.s.f.Q.oXi @X_.              ",
"                  Q.D.d.u.l.=.=.=...| | { X.l.c.D M h h ) $.l.%.9.6.6.K K <.0.<.0.j.0.[ J J G p ^ q.p.i.R.L.i |.A.              ",
"                        mXx.V.$.*.....` ( ....*./ v w m q w $.I X.| S e S S 0 5 5 C C I  .w 4 w p 8.e.y.e.G L .X`.              ",
"                        KXP.P.V.=...` ( / D / *.#.D e I | 5 = = & 8 g h f g 8 & . V f c 4 h w v Q { ^ ! r.p J 5.ZX              ",
"                          }.P.V.l...` ` _ ( ( $...Q F ] h.l.U k 6 6 e k k k h q + . . 5  .G e A ` t p Q { a 4.u.                ",
"                          iXx.I.=...( / / / ` *...F ] X.h.h.9.j.%.U Y Y C 6 6 6 3 3 U v.Z.G p Q Q t Z D A KX                    ",
"                          dXH.P.V.$...( ( ( ( ` ..| | X.h.X. . . .h.h.<.<.<.<.w.G.S.S.C.i.J A F A t D F dX                      ",
"                          sX~.l.=.=...( ( _ _ ( _ | | ]  .X.X. .I j e j Z G G L L K 2.y.y.! ] F p v t Q KX                      ",
"                          xX).l.l.c.=.` ( ` ..` _ ( ( ] X.X.X.%.%.| ( b q 5 q 5 y p 7.e.7.~ Q p t v v KX                        ",
"                          sXoXe.{ $...` ` ..` / / / ( _ |  .h.h.%.| I b w h 0 v ! 7.e.7.} Q v v c 0 n                           ",
"                          sX*XH.] ( ( ` ..` ` _ B f c b P ( | | | F F D S A (  .9.H.m.e.! A v v r n                             ",
"                            3X'.r.] ( ` ( / / m B B B R ) / D ( ( ( I ( F F { X.r.N.N.r.! D m M K.                              ",
"                              '.i.r.} { ( / D m m m E B B m b b P P P D v D F G ! ! { o.A v w K.                                ",
"                              R.p.8.} ! Q ( m b f 0 g 8 8 f 9 9 f l 9 q 0 0 0 0 0 0 W M 0 q ].                                  ",
"                                t.3.2.! A w w w 0 g 8 8 9 , > > > ; ; ; 8 ; & ; 8 ; ; ; q D                                     ",
"                                  8.7.~ ! F A 0 q ; > - > - , > > + % % + % o + o o + 0 F mX                                    ",
"                                    7.~ ~ } { ! F A v q & & & & % + + o X O X X & 0 t G ^                                       ",
"                                      8.8.7.e.e.7.7.[ ] J F F A Z j w h j h t v v u u                                           ",
"                                              8.8.8.2.2.2.2.[ ~ [ ~ ! J J F G p y                                               ",
"                    LX                            t.8.8.8.3.8.3.7.2.2.H H a s                                                   ",
"                                                                                                                                ",
"                                                                                                                                ",
"                                                                                                                                ",
"                                                                                                                                "
};
