/* XPM */
static char *_59958b1e5f54955b91d26fef42e1b35lsf6Q8V4WeELFFQf[] = {
/* columns rows colors chars-per-pixel */
"64 64 7 1 ",
"  c black",
". c gray13",
"X c gray26",
"o c gray34",
"O c gray38",
"+ c gray46",
"@ c gray62",
/* pixels */
"oo@@++++++++++++++++++++++++OO  OO@@++++++++++++++++++++++++OO  ",
"oo@@++++++++++++++++++++++++OO  OO@@++++++++++++++++++++++++OO  ",
"@@OOOOOOOOOOOOOOOOOOOOOOOOOO++..@@OOOOOOOOOOOOOOOOOOOOOOOOOO++..",
"@@OOOOOOOOOOOOOOOOOOOOOOOOOO++..@@OOOOOOOOOOOOOOOOOOOOOOOOOO++..",
"++OOOOOOOOOOOOOOOOOOOOOOOOOOOO..++OOOOOOOOOOOOOOOOOOOOOOOOOOOO..",
"++OOOOOOOOOOOOOOOOOOOOOOOOOOOO..++OOOOOOOOOOOOOOOOOOOOOOOOOOOO..",
"++OOOOOOOOOOOOOOOOOOOOOOOOOOXX..++OOOOOOOOOOOOOOOOOOOOOOOOOOXX..",
"++OOOOOOOOOOOOOOOOOOOOOOOOOOXX..++OOOOOOOOOOOOOOOOOOOOOOOOOOXX..",
"++OOOOOOOOOOOOOOOOOOOOOOOOOOXX..++OOOOOOOOOOOOOOOOOOOOOOOOOOXX..",
"++OOOOOOOOOOOOOOOOOOOOOOOOOOXX..++OOOOOOOOOOOOOOOOOOOOOOOOOOXX..",
"++OOOOOOOOOOOOOOOOOOOOOOOOOOXX..++OOOOOOOOOOOOOOOOOOOOOOOOOOXX..",
"++OOOOOOOOOOOOOOOOOOOOOOOOOOXX..++OOOOOOOOOOOOOOOOOOOOOOOOOOXX..",
"++OOOOOOOOOOOOOOOOOOOOOOOOOOXX..++OOOOOOOOOOOOOOOOOOOOOOOOOOXX..",
"++OOOOOOOOOOOOOOOOOOOOOOOOOOXX..++OOOOOOOOOOOOOOOOOOOOOOOOOOXX..",
"++OOOOOOOOOOOOOOOOOOOOOOOOOOXX..++OOOOOOOOOOOOOOOOOOOOOOOOOOXX..",
"++OOOOOOOOOOOOOOOOOOOOOOOOOOXX..++OOOOOOOOOOOOOOOOOOOOOOOOOOXX..",
"++OOOOOOOOOOOOOOOOOOOOOOOOOOXX..++OOOOOOOOOOOOOOOOOOOOOOOOOOXX..",
"++OOOOOOOOOOOOOOOOOOOOOOOOOOXX..++OOOOOOOOOOOOOOOOOOOOOOOOOOXX..",
"++OOOOOOOOOOOOOOOOOOOOOOOOOOXX..++OOOOOOOOOOOOOOOOOOOOOOOOOOXX..",
"++OOOOOOOOOOOOOOOOOOOOOOOOOOXX..++OOOOOOOOOOOOOOOOOOOOOOOOOOXX..",
"++OOOOOOOOOOOOOOOOOOOOOOOOOOXX..++OOOOOOOOOOOOOOOOOOOOOOOOOOXX..",
"++OOOOOOOOOOOOOOOOOOOOOOOOOOXX..++OOOOOOOOOOOOOOOOOOOOOOOOOOXX..",
"++OOOOOOOOOOOOOOOOOOOOOOOOOOXX..++OOOOOOOOOOOOOOOOOOOOOOOOOOXX..",
"++OOOOOOOOOOOOOOOOOOOOOOOOOOXX..++OOOOOOOOOOOOOOOOOOOOOOOOOOXX..",
"++OOOOOOOOOOOOOOOOOOOOOOOOOOXX..++OOOOOOOOOOOOOOOOOOOOOOOOOOXX..",
"++OOOOOOOOOOOOOOOOOOOOOOOOOOXX..++OOOOOOOOOOOOOOOOOOOOOOOOOOXX..",
"++OOOOOOOOOOOOOOOOOOOOOOOOOOXX..++OOOOOOOOOOOOOOOOOOOOOOOOOOXX..",
"++OOOOOOOOOOOOOOOOOOOOOOOOOOXX..++OOOOOOOOOOOOOOOOOOOOOOOOOOXX..",
"OO++OOXXXXXXXXXXXXXXXXXXXXXX..  OO++OOXXXXXXXXXXXXXXXXXXXXXX..  ",
"OO++OOXXXXXXXXXXXXXXXXXXXXXX..  OO++OOXXXXXXXXXXXXXXXXXXXXXX..  ",
"  ..........................      ..........................    ",
"  ..........................      ..........................    ",
"OO@@++++++++++++++++++++++++OO  OO@@++++++++++++++++++++++++OO  ",
"OO@@++++++++++++++++++++++++OO  OO@@++++++++++++++++++++++++OO  ",
"@@OOOOOOOOOOOOOOOOOOOOOOOOOO++..@@OOOOOOOOOOOOOOOOOOOOOOOOOO++..",
"@@OOOOOOOOOOOOOOOOOOOOOOOOOO++..@@OOOOOOOOOOOOOOOOOOOOOOOOOO++..",
"++OOOOOOOOOOOOOOOOOOOOOOOOOOOO..++OOOOOOOOOOOOOOOOOOOOOOOOOOOO..",
"++OOOOOOOOOOOOOOOOOOOOOOOOOOOO..++OOOOOOOOOOOOOOOOOOOOOOOOOOOO..",
"++OOOOOOOOOOOOOOOOOOOOOOOOOOXX..++OOOOOOOOOOOOOOOOOOOOOOOOOOXX..",
"++OOOOOOOOOOOOOOOOOOOOOOOOOOXX..++OOOOOOOOOOOOOOOOOOOOOOOOOOXX..",
"++OOOOOOOOOOOOOOOOOOOOOOOOOOXX..++OOOOOOOOOOOOOOOOOOOOOOOOOOXX..",
"++OOOOOOOOOOOOOOOOOOOOOOOOOOXX..++OOOOOOOOOOOOOOOOOOOOOOOOOOXX..",
"++OOOOOOOOOOOOOOOOOOOOOOOOOOXX..++OOOOOOOOOOOOOOOOOOOOOOOOOOXX..",
"++OOOOOOOOOOOOOOOOOOOOOOOOOOXX..++OOOOOOOOOOOOOOOOOOOOOOOOOOXX..",
"++OOOOOOOOOOOOOOOOOOOOOOOOOOXX..++OOOOOOOOOOOOOOOOOOOOOOOOOOXX..",
"++OOOOOOOOOOOOOOOOOOOOOOOOOOXX..++OOOOOOOOOOOOOOOOOOOOOOOOOOXX..",
"++OOOOOOOOOOOOOOOOOOOOOOOOOOXX..++OOOOOOOOOOOOOOOOOOOOOOOOOOXX..",
"++OOOOOOOOOOOOOOOOOOOOOOOOOOXX..++OOOOOOOOOOOOOOOOOOOOOOOOOOXX..",
"++OOOOOOOOOOOOOOOOOOOOOOOOOOXX..++OOOOOOOOOOOOOOOOOOOOOOOOOOXX..",
"++OOOOOOOOOOOOOOOOOOOOOOOOOOXX..++OOOOOOOOOOOOOOOOOOOOOOOOOOXX..",
"++OOOOOOOOOOOOOOOOOOOOOOOOOOXX..++OOOOOOOOOOOOOOOOOOOOOOOOOOXX..",
"++OOOOOOOOOOOOOOOOOOOOOOOOOOXX..++OOOOOOOOOOOOOOOOOOOOOOOOOOXX..",
"++OOOOOOOOOOOOOOOOOOOOOOOOOOXX..++OOOOOOOOOOOOOOOOOOOOOOOOOOXX..",
"++OOOOOOOOOOOOOOOOOOOOOOOOOOXX..++OOOOOOOOOOOOOOOOOOOOOOOOOOXX..",
"++OOOOOOOOOOOOOOOOOOOOOOOOOOXX..++OOOOOOOOOOOOOOOOOOOOOOOOOOXX..",
"++OOOOOOOOOOOOOOOOOOOOOOOOOOXX..++OOOOOOOOOOOOOOOOOOOOOOOOOOXX..",
"++OOOOOOOOOOOOOOOOOOOOOOOOOOXX..++OOOOOOOOOOOOOOOOOOOOOOOOOOXX..",
"++OOOOOOOOOOOOOOOOOOOOOOOOOOXX..++OOOOOOOOOOOOOOOOOOOOOOOOOOXX..",
"++OOOOOOOOOOOOOOOOOOOOOOOOOOXX..++OOOOOOOOOOOOOOOOOOOOOOOOOOXX..",
"++OOOOOOOOOOOOOOOOOOOOOOOOOOXX..++OOOOOOOOOOOOOOOOOOOOOOOOOOXX..",
"OO++OOXXXXXXXXXXXXXXXXXXXXXX..  OO++OOXXXXXXXXXXXXXXXXXXXXXX..  ",
"OO++OOXXXXXXXXXXXXXXXXXXXXXX..  OO++OOXXXXXXXXXXXXXXXXXXXXXX..  ",
"  ..........................      ..........................    ",
"  ..........................      ..........................    "
};
