/* XPM */
static char *_e08fa524f38431897546912708f770aBJplUadNz486GsDC[] = {
/* columns rows colors chars-per-pixel */
"64 64 12 1 ",
"  c None",
". c black",
"X c #5E340E",
"o c #654A32",
"O c #7E5D3E",
"+ c #1B4E70",
"@ c #943126",
"# c #B93D30",
"$ c #2A7AAF",
"% c #C4A383",
"& c #F5CBA4",
"* c white",
/* pixels */
"                                                                ",
"                                                                ",
"                          ..........                            ",
"                          ..........                            ",
"                        ..XXXXOOOOXX..                          ",
"                      ..OOOOOOOOOOXXOO..                        ",
"                      ..OOOOOOOOOOXXOO..                        ",
"                      ..XXXXXXXXXXOOOO..                        ",
"                      ..&&&&&&&&&&OOXX..                        ",
"                      ..&&&&&&&&&&OOXX..                        ",
"                      ..&&&&&&&&&&XXXX..                        ",
"                      ..&&XX&&XX&&XX&&..                        ",
"                      ..&&XX&&XX&&XX&&..                        ",
"                      ..&&&&&&&&&&&&&&..                        ",
"                      ..&&&&&&&&&&&&..                          ",
"                      ..&&&&&&&&&&&&..                          ",
"                      ..&&&&oooo&&&&..                          ",
"                        ..&&&&&&&&%%..                          ",
"                        ..&&&&&&&&%%..                          ",
"                          ......%%%%..                          ",
"                          ..##@@%%@@##..                        ",
"                          ..##@@%%@@##..                        ",
"                          ..##@@@@######..                      ",
"                          ..##@@@@######..                      ",
"                          ..##############..                    ",
"                          ..##############..                    ",
"                          ..##############..                    ",
"                          ..########..####..                    ",
"                          ..########..####..                    ",
"                          ..########..####..                    ",
"                          ..########..@@@@..                    ",
"                          ..########..&&&&..                    ",
"                          ..########..&&&&..                    ",
"                          ..########..&&&&..                    ",
"                          ..########..&&&&..                    ",
"                          ..########..&&&&..                    ",
"                          ..########..&&&&..                    ",
"                          ..@@@@####..&&&&..                    ",
"                          ..@@@@####..&&&&..                    ",
"                          ..$$$$@@@@..&&&&..                    ",
"                          ..$$++$$$$..&&&&..                    ",
"                          ..$$++$$$$..&&&&..                    ",
"                          ..$$++..$$++....                      ",
"                          ..$$++..$$++....                      ",
"                          ..$$++..$$++..                        ",
"                          ..$$++..$$++..                        ",
"                          ..$$++..$$++..                        ",
"                          ..$$++..$$++..                        ",
"                          ..++++..$$++..                        ",
"                          ..++++..$$++..                        ",
"                          ..++++..++++..                        ",
"                          ..++++..++++..                        ",
"                          ..++++..++++..                        ",
"                          ..++++..++++..                        ",
"                          ..++++..++++..                        ",
"                          ..++++..++++..                        ",
"                          ..++++..++++..                        ",
"                        ..******..++++..                        ",
"                        ..******..++++..                        ",
"                        ........******..                        ",
"                              ........                          ",
"                              ........                          ",
"                                                                ",
"                                                                "
};
