/* XPM */
static char *_0dc3913031442cbf1971250729c2a70H8xjD0rlvodO8fBp[] = {
/* columns rows colors chars-per-pixel */
"64 64 6 1 ",
"  c None",
". c #9C3232",
"X c #AD3C3C",
"o c #C04B4B",
"O c #C79FA0",
"+ c #D9B4B6",
/* pixels */
"                                                                ",
"                                                                ",
"                                                                ",
"   oooooooooooooooooXOOooooooooooooooooXXOOooooooooooooooooXX   ",
"   oooooooooooooooooXOOooooooooooooooooXXOOooooooooooooooooXX   ",
"   ooXXXXXXXXXXXXXXX.++ooXXXXXXXXXXXXXX..++oXXXXXXXXXXXXXXX..   ",
"   ooXXXXXXXXXXXXXXX.++ooXXXXXXXXXXXXXX..++oXXXXXXXXXXXXXXX..   ",
"   ooXXXXXXXXXXXXXXX.++ooXXXXXXXXXXXXXX..++oXXXXXXXXXXXXXXX..   ",
"   ooXXXXXXXXXXXXXXX.++ooXXXXXXXXXXXXXX..++oXXXXXXXXXXXXXXX..   ",
"   ooXXXXXXXXXXXXXXX.++ooXXXXXXXXXXXXXX..++oXXXXXXXXXXXXXXX..   ",
"   XX................OOXX................OOX.................   ",
"   OO+++++OOOOO+++++OOOOO+++++OOOO+++++OOOOO+++++OOOOO+++++OO   ",
"   OO+++++OOOOO+++++OOOOO+++++OOOO+++++OOOOO+++++OOOOO+++++OO   ",
"   oooooooXOOoooooooooooooooooXOOooooooooooooooooXXOOoooooooo   ",
"   oooooooXOOoooooooooooooooooXOOooooooooooooooooXXOOoooooooo   ",
"   XXXXXXX.++ooXXXXXXXXXXXXXXX.++oXXXXXXXXXXXXXXX..++oXXXXXXX   ",
"   XXXXXXX.++ooXXXXXXXXXXXXXXX.++oXXXXXXXXXXXXXXX..++oXXXXXXX   ",
"   XXXXXXX.++ooXXXXXXXXXXXXXXX.++oXXXXXXXXXXXXXXX..++oXXXXXXX   ",
"   XXXXXXX.++ooXXXXXXXXXXXXXXX.++oXXXXXXXXXXXXXXX..++oXXXXXXX   ",
"   XXXXXXX.++ooXXXXXXXXXXXXXXX.++oXXXXXXXXXXXXXXX..++oXXXXXXX   ",
"   ........OOXX................OOX.................OOX.......   ",
"   OO+++++OOOOO+++++OOOOO+++++OOOO+++++OOOOO+++++OOOOO+++++OO   ",
"   OO+++++OOOOO+++++OOOOO+++++OOOO+++++OOOOO+++++OOOOO+++++OO   ",
"   oooooooooooooooooXOOooooooooooooooooXXOOooooooooooooooooXX   ",
"   oooooooooooooooooXOOooooooooooooooooXXOOooooooooooooooooXX   ",
"   ooXXXXXXXXXXXXXXX.++ooXXXXXXXXXXXXXX..++oXXXXXXXXXXXXXXX..   ",
"   ooXXXXXXXXXXXXXXX.++ooXXXXXXXXXXXXXX..++oXXXXXXXXXXXXXXX..   ",
"   ooXXXXXXXXXXXXXXX.++ooXXXXXXXXXXXXXX..++oXXXXXXXXXXXXXXX..   ",
"   ooXXXXXXXXXXXXXXX.++ooXXXXXXXXXXXXXX..++oXXXXXXXXXXXXXXX..   ",
"   ooXXXXXXXXXXXXXXX.++ooXXXXXXXXXXXXXX..++oXXXXXXXXXXXXXXX..   ",
"   XX................OOXX................OOX.................   ",
"   OO+++++OOOOO+++++OOOOO+++++OOOO+++++OOOOO+++++OOOOO+++++OO   ",
"   OO+++++OOOOO+++++OOOOO+++++OOOO+++++OOOOO+++++OOOOO+++++OO   ",
"   oooooooXOOoooooooooooooooooXOOooooooooooooooooXXOOoooooooo   ",
"   XXXXXXX.++ooXXXXXXXXXXXXXXX.++oXXXXXXXXXXXXXXX..++oXXXXXXX   ",
"   XXXXXXX.++ooXXXXXXXXXXXXXXX.++oXXXXXXXXXXXXXXX..++oXXXXXXX   ",
"   XXXXXXX.++ooXXXXXXXXXXXXXXX.++oXXXXXXXXXXXXXXX..++oXXXXXXX   ",
"   XXXXXXX.++ooXXXXXXXXXXXXXXX.++oXXXXXXXXXXXXXXX..++oXXXXXXX   ",
"   XXXXXXX.++ooXXXXXXXXXXXXXXX.++oXXXXXXXXXXXXXXX..++oXXXXXXX   ",
"   ........OOXX................OOX.................OOX.......   ",
"   ........OOXX................OOX.................OOX.......   ",
"   OO+++++OOOOO+++++OOOOO+++++OOOO+++++OOOOO+++++OOOOO+++++OO   ",
"   OO+++++OOOOO+++++OOOOO+++++OOOO+++++OOOOO+++++OOOOO+++++OO   ",
"   oooooooooooooooooXOOooooooooooooooooXXOOooooooooooooooooXX   ",
"   ooXXXXXXXXXXXXXXX.++ooXXXXXXXXXXXXXX..++oXXXXXXXXXXXXXXX..   ",
"   ooXXXXXXXXXXXXXXX.++ooXXXXXXXXXXXXXX..++oXXXXXXXXXXXXXXX..   ",
"   ooXXXXXXXXXXXXXXX.++ooXXXXXXXXXXXXXX..++oXXXXXXXXXXXXXXX..   ",
"   ooXXXXXXXXXXXXXXX.++ooXXXXXXXXXXXXXX..++oXXXXXXXXXXXXXXX..   ",
"   ooXXXXXXXXXXXXXXX.++ooXXXXXXXXXXXXXX..++oXXXXXXXXXXXXXXX..   ",
"   XX................OOXX................OOX.................   ",
"   XX................OOXX................OOX.................   ",
"   OO+++++OOOOO+++++OOOOO+++++OOOO+++++OOOOO+++++OOOOO+++++OO   ",
"   OO+++++OOOOO+++++OOOOO+++++OOOO+++++OOOOO+++++OOOOO+++++OO   ",
"   oooooooXOOoooooooooooooooooXOOooooooooooooooooXXOOoooooooo   ",
"   XXXXXXX.++ooXXXXXXXXXXXXXXX.++oXXXXXXXXXXXXXXX..++oXXXXXXX   ",
"   XXXXXXX.++ooXXXXXXXXXXXXXXX.++oXXXXXXXXXXXXXXX..++oXXXXXXX   ",
"   XXXXXXX.++ooXXXXXXXXXXXXXXX.++oXXXXXXXXXXXXXXX..++oXXXXXXX   ",
"   XXXXXXX.++ooXXXXXXXXXXXXXXX.++oXXXXXXXXXXXXXXX..++oXXXXXXX   ",
"   XXXXXXX.++ooXXXXXXXXXXXXXXX.++oXXXXXXXXXXXXXXX..++oXXXXXXX   ",
"   ........OOXX................OOX.................OOX.......   ",
"   ........OOXX................OOX.................OOX.......   ",
"                                                                ",
"                                                                ",
"                                                                "
};
