/* XPM */
static char *_dd3e62142c5416aef8ba5e09b2f4804YajjSZ1OEiON1qPz[] = {
/* columns rows colors chars-per-pixel */
"64 64 7 1 ",
"  c None",
". c black",
"X c #78310B",
"o c red",
"O c #23D400",
"+ c #F7821B",
"@ c white",
/* pixels */
"                                                                ",
"                                                                ",
"                                                                ",
"                                                                ",
"                                                                ",
"                                                                ",
"                                                                ",
"                                                                ",
"                                                                ",
"                                                                ",
"                                                                ",
"                                                                ",
"                      ....................                      ",
"                      ....................                      ",
"                      ....................                      ",
"                   ...++++++++++++++++++++...                   ",
"                   ...++++++++++++++++++++...                   ",
"                   ...++++++++++++++++++++...                   ",
"                ...++++++++++++++++++++++++++...                ",
"                ...++++++++++++++++++++++++++...                ",
"                ...++++++++++++++++++++++++++...                ",
"             ...+++...@@@@+++......+++....@@@+++...             ",
"             ...+++...@@@@+++......+++....@@@+++...             ",
"             ...+++...@@@@+++......+++....@@@+++...             ",
"             ...+++.......++++++++++++.......+++...             ",
"             ...+++.......++++++++++++.......+++...             ",
"             ...+++.......++++++++++++.......+++...             ",
"             ...++++++++++++++++++++++++++++++++...             ",
"             ...++++++++++++++++++++++++++++++++...             ",
"             ...++++++++++++++++++++++++++++++++...             ",
"          ............................................          ",
"          ............................................          ",
"          ............................................          ",
"          ...XXXXXXXXXXXXXXXXXXXXXXXXXXXXXXXXXXXXXX...          ",
"          ...XXXXXXXXXXXXXXXXXXXXXXXXXXXXXXXXXXXXXX...          ",
"          ...XXXXXXXXXXXXXXXXXXXXXXXXXXXXXXXXXXXXXX...          ",
"             ......................................             ",
"             ......................................             ",
"             ......................................             ",
"          ...OOOOOOOOOOOOOOOOOOOOOOOOOOOOOOOOOOOOOO...          ",
"          ...OOOOOOOOOOOOOOOOOOOOOOOOOOOOOOOOOOOOOO...          ",
"          ...OOOOOOOOOOOOOOOOOOOOOOOOOOOOOOOOOOOOOO...          ",
"             ......oooooooooo......oooooooooo......             ",
"             ......oooooooooo......oooooooooo......             ",
"             ......oooooooooo......oooooooooo......             ",
"             ...+++..........++++++..........+++...             ",
"             ...+++..........++++++..........+++...             ",
"             ...+++..........++++++..........+++...             ",
"             ...++++++++++++++++++++++++++++++++...             ",
"             ...++++++++++++++++++++++++++++++++...             ",
"             ...++++++++++++++++++++++++++++++++...             ",
"                ................................                ",
"                ................................                ",
"                ................................                ",
"                                                                ",
"                                                                ",
"                                                                ",
"                                                                ",
"                                                                ",
"                                                                ",
"                                                                ",
"                                                                ",
"                                                                ",
"                                                                "
};
