/* XPM */
static char *b9f996a4a2d64f28a61b5da55acbb7acuAjj8Fg2C8AqhLkb[] = {
/* columns rows colors chars-per-pixel */
"64 64 4 1 ",
"  c None",
". c black",
"X c #FEBD25",
"o c white",
/* pixels */
"                                                                ",
"                                                                ",
"                                                                ",
"                                                                ",
"                                                                ",
"                                                                ",
"                                                                ",
"                                                                ",
"                                                                ",
"                                                                ",
"                                                                ",
"                                                                ",
"                                                                ",
"                                                                ",
"                                                                ",
"                                                                ",
"                                                                ",
"                            ..........                          ",
"                            ..........                          ",
"                       .....XXXXXXXXXX.....                     ",
"                       .....XXXXXXXXXX.....                     ",
"                       .....XXXXXXXXXX.....                     ",
"                    ...XXXXXXXXXXXXXXXXXXXX..                   ",
"                    ...XXXXXXXXXXXXXXXXXXXX..                   ",
"                    ...XXXXXXXoooooXXXXXXXX..                   ",
"                    ...XXXXXXXoooooXXXXXXXX..                   ",
"                  ..XXXXXXXXooXXXXX...XXXXXXX...                ",
"                  ..XXXXXXXXooXXXXX...XXXXXXX...                ",
"                  ..XXXXXXXXooXXXXX...XXXXXXX...                ",
"                  ..XXXXXXXXooXXXXX...XXXXXXX...                ",
"                  ..XXXXXXXXooXXXXX...XXXXXXX...                ",
"                  ..XXXXXXXXooXXXXX...XXXXXXX...                ",
"                  ..XXXXXXXXooXXXXX...XXXXXXX...                ",
"                  ..XXXXXXXXooXXXXX...XXXXXXX...                ",
"                  ..XXXXXXXXooXXXXX...XXXXXXX...                ",
"                  ..XXXXXXXXooXXXXX...XXXXXXX...                ",
"                  ..XXXXXXXXooXXXXX...XXXXXXX...                ",
"                  ..XXXXXXXXooXXXXX...XXXXXXX...                ",
"                  ..XXXXXXXXooXXXXX...XXXXXXX...                ",
"                  ..XXXXXXXXooXXXXX...XXXXXXX...                ",
"                    ...XXXXXXX.....XXXXXXXX..                   ",
"                    ...XXXXXXX.....XXXXXXXX..                   ",
"                    ...XXXXXXXXXXXXXXXXXXXX..                   ",
"                    ...XXXXXXXXXXXXXXXXXXXX..                   ",
"                       .....XXXXXXXXXX.....                     ",
"                       .....XXXXXXXXXX.....                     ",
"                       .....XXXXXXXXXX.....                     ",
"                            ..........                          ",
"                            ..........                          ",
"                                                                ",
"                                                                ",
"                                                                ",
"                                                                ",
"                                                                ",
"                                                                ",
"                                                                ",
"                                                                ",
"                                                                ",
"                                                                ",
"                                                                ",
"                                                                ",
"                                                                ",
"                                                                ",
"                                                                "
};
