/* XPM */
static char *_14a5afcf48c4abae34f3866b3225e7fo94KXBZrqxPe4sIO[] = {
/* columns rows colors chars-per-pixel */
"64 64 255 2 ",
"   c None",
".  c #0E0908",
"X  c #130C0B",
"o  c #180A06",
"O  c #15110E",
"+  c #1A110E",
"@  c #151111",
"#  c #1A1412",
"$  c #1F1818",
"%  c #120F12",
"&  c #270D07",
"*  c #2A160B",
"=  c #2D1A0E",
"-  c #26140A",
";  c #331B0E",
":  c #38170B",
">  c #2C1B12",
",  c #261813",
"<  c #331D12",
"1  c #3A1D13",
"2  c #341D17",
"3  c #320E07",
"4  c #352114",
"5  c #3C2215",
"6  c #35241C",
"7  c #3B241A",
"8  c #3C291E",
"9  c #352917",
"0  c #2A201D",
"q  c #3D2B23",
"w  c #342826",
"e  c #3B302E",
"r  c #48190B",
"t  c #461B14",
"y  c #561C15",
"u  c #4C1006",
"i  c #42251A",
"p  c #442A1C",
"a  c #4C2B1C",
"s  c #472416",
"d  c #542C1C",
"f  c #59281B",
"g  c #57331D",
"h  c #532813",
"j  c #65291B",
"k  c #752B17",
"l  c #63331D",
"z  c #6B331A",
"x  c #6F360C",
"c  c #432D23",
"v  c #4B2D22",
"b  c #492923",
"n  c #522D22",
"m  c #5A2C23",
"M  c #4C3224",
"N  c #48342A",
"B  c #523324",
"V  c #5C3323",
"C  c #5B352B",
"Z  c #5B3B2B",
"A  c #563929",
"S  c #4B3C32",
"D  c #593B32",
"F  c #633323",
"G  c #643B25",
"H  c #633B2B",
"J  c #6B3C2B",
"K  c #673728",
"L  c #733E2B",
"P  c #793A27",
"I  c #643D32",
"U  c #6B3D32",
"Y  c #763B33",
"T  c #6A2C27",
"R  c #7B4618",
"E  c #5D412E",
"W  c #5B4337",
"Q  c #6B412C",
"!  c #63422E",
"~  c #73432C",
"^  c #7D442C",
"/  c #794623",
"(  c #654334",
")  c #6B4334",
"_  c #6C453A",
"`  c #6D4A3A",
"'  c #664739",
"]  c #734333",
"[  c #7C4332",
"{  c #744934",
"}  c #7C4A33",
"|  c #74463A",
" . c #7B463A",
".. c #734B3C",
"X. c #7C4B3D",
"o. c #77523D",
"O. c #715038",
"+. c #423C40",
"@. c #5A4940",
"#. c #4F4640",
"$. c #694C42",
"%. c #754E42",
"&. c #7B4D42",
"*. c #6A5548",
"=. c #7C5345",
"-. c #775747",
";. c #715B53",
":. c #7A6354",
">. c #853A26",
",. c #873C34",
"<. c #973628",
"1. c #8C311F",
"2. c #84451A",
"3. c #84442C",
"4. c #854A2D",
"5. c #8B4A2D",
"6. c #8A4427",
"7. c #93482C",
"8. c #87522C",
"9. c #844433",
"0. c #844B34",
"q. c #8B4C34",
"w. c #844B3C",
"e. c #894638",
"r. c #934D33",
"t. c #964737",
"y. c #8B533C",
"u. c #89563B",
"i. c #945235",
"p. c #94533A",
"a. c #9B533A",
"s. c #9C5A3D",
"d. c #9A5436",
"f. c #A54834",
"g. c #A45B3C",
"h. c #A75639",
"j. c #B55C3E",
"k. c #AC6C39",
"l. c #83603C",
"z. c #834C42",
"x. c #894B43",
"c. c #954C42",
"v. c #835344",
"b. c #8C5243",
"n. c #89594A",
"m. c #9C5B44",
"M. c #94554A",
"N. c #9C5C4C",
"B. c #965746",
"V. c #995D52",
"C. c #8A5C51",
"Z. c #A45D44",
"A. c #A45C4C",
"S. c #AA5A47",
"D. c #B35C47",
"F. c #A25E52",
"G. c #A14F46",
"H. c #99634C",
"J. c #876855",
"K. c #9D6353",
"L. c #976657",
"P. c #8A6B52",
"I. c #AB6344",
"U. c #AD644C",
"Y. c #A76649",
"T. c #B3644C",
"R. c #B26B4C",
"E. c #BA6649",
"W. c #A36454",
"Q. c #A86958",
"!. c #B76B55",
"~. c #AA7157",
"^. c #B5745B",
"/. c #BA7557",
"(. c #AD704E",
"). c #887264",
"_. c #98796A",
"`. c #8C7369",
"'. c #B97765",
"]. c #AA7467",
"[. c #C46A4B",
"{. c #C6724D",
"}. c #C76D54",
"|. c #C4745B",
" X c #C47B5C",
".X c #CC7B5B",
"XX c #C67556",
"oX c #D77B58",
"OX c #E27D5C",
"+X c #C87C66",
"@X c #CF7762",
"#X c #BA825D",
"$X c #95836E",
"%X c #B88466",
"&X c #AB8973",
"*X c #C8825D",
"=X c #D9825D",
"-X c #E2835F",
";X c #CA8867",
":X c #D88766",
">X c #D88673",
",X c #DA977B",
"<X c #C98B6E",
"1X c #E58B63",
"2X c #E68A67",
"3X c #E7946A",
"4X c #F5966A",
"5X c #E79876",
"6X c #F89C75",
"7X c #EF8C6C",
"8X c #EAA47B",
"9X c #FEA47C",
"0X c #F9A77A",
"qX c #F6B77D",
"wX c #D5A87B",
"eX c #AF998B",
"rX c #B4A697",
"tX c #E49B82",
"yX c #F09884",
"uX c #C8A18A",
"iX c #D9B69D",
"pX c #EDA683",
"aX c #FEAC83",
"sX c #F8AA87",
"dX c #FCB787",
"fX c #FFB995",
"gX c #EAB499",
"hX c #CDBAA2",
"jX c #F8BAA2",
"kX c #DB9D8E",
"lX c #FFC78E",
"zX c #FFCB96",
"xX c #FFD69A",
"cX c #D9C9AE",
"vX c #FFDAAC",
"bX c #FFD7A6",
"nX c #FFDCB3",
"mX c #FBD9B9",
"MX c #EDCEAE",
"NX c #FCE5AC",
"BX c #FEE5B7",
"VX c #F7F1B8",
"CX c #FFE39D",
"ZX c #E4D7C9",
"AX c #F6E7CC",
"SX c #F9FCC7",
"DX c #F9F9D7",
"FX c #F0E7D2",
"GX c #F6FEE3",
"HX c #F6FFEB",
"JX c #F8FDE8",
"KX c #F6FFFD",
"LX c #F7FCF7",
"PX c #EAEEE8",
"IX c #D1D2C3",
/* pixels */
"                                                                                                                                ",
"                                                                                                                                ",
"                                                                                                                                ",
"                                                X . . # # X . X . X . . . .                                                     ",
"                                        X X X X o W ;.:.J.J.:.*.-.*.o . . . X .                                                 ",
"                                    X X . . #.).).J.J.P.-.C.-.n.J.J.).J.' q o . X                                               ",
"                                X X . + W :.*.*.*.*.` ( E A V ! *.` ) :.J.J.J.)., + o # @                                       ",
"                                O $ @.@.D ' D B W W B 7 M M ' ` ( W B g ! ( -.o.).$.*.N , w %                                   ",
"                              O @ o ;.*.p N N N S S c N 1 5 M B ' ' ( p p a A Z O.J.P.J.J.N + @ @                               ",
"                        O O X O O 0 @.@.N 8 8 c N N 8 8 7 < 1 c v M E N 7 5 i a Z ! { n.P.).*.q , @ @                           ",
"                  O O O O # + o = p B M S S c 6 c q 4 S - > 4 4 7 M c W 7 < < 5 p B ( o...v.-.( c , @ @                         ",
"            X X X X X X . *.VXSXSXVXvXdXu.W 8 8 q 6 q 6 N q 4 B D E M M N c 4 ; 4 7 i C ) G ( O.' D S @ @                       ",
"          X X X . o 9 $XVXSXSXSXVXNXzX8Xu.i < = 2 q 2 q 2 = N N i M B M i 8 4 > 4 4 ; A Z g G ! -.J.' 6 # @                     ",
"        @ X 7 &XcXSXSXSXVXVXVXbXfX:XZ.y.Q i 2 > * , w 6 6 4 - * c N M M A v 4 * * = > 7 M B E ( ! o.( E @ @ @                   ",
"      # O D mXBXBXBXbXdX0X1X8X8X/.0.J ( ( A 1 : 1 4 7 q 6 6 6 6 6 2 5 v M M M c = * * < p 5 i p g Z E A 6 # @                   ",
"      O 2 jXnXBXBXBXbXaX5X:Xd.i.0.V B C Z Q } b.V.~._.&.%.Z c 4 5 8 8 i i M c 4 2 * * < 6 1 5 p A ( $.( M # # @                 ",
"      - iXnXBXBXBXNXbXzXzXdX/.0.V B n n J K.^.<X,X,X,X<Xb.n...C p i 7 5 ; : c c 7 < * > > = 4 c M M g ! ( :.O @ @               ",
"      uXnXnXnXBXNXvXbXzXdXpX(.L H 1 : ] Q.,X5XfXfXsXsX5X+X~.m.e.0.} ] ~ ~ ~ Q Q ) V t < > - - = 7 M Z ` -.:.> # #               ",
"      mXvXvXvXvXvXbXzXdX8X;XY.[ f s X.;XsXfXfXfXfXdX8X5X+XU.Y.A.S.Z.Z.Z.Z.I.I.U.U.Y.U.s.h ; * , < a ! V M i c N + O             ",
"      bXvXnXvXvXbXfX0X5X;X XZ.y.f F '.5XsXsXdXsX0X3X:X+XT.!.U.S.S.U.T.!.!.!./.XX.X:X2X3X.X4.: < < i G %Xu.B M N - @             ",
"      vXvXvXvXzXsX5X;X*X^.Y.s.9.y  .+X5XsXsXsX8X:X;X+X+X X!.T.U.T.T.E.|.XXXX.XoX=X1X6X0X6X4X=Xp.3 1 B G 8.(.u.B 8 #             ",
"      vXnXvXzX0X:X/.^.(.Y.m.r.9.y z.+XtXpXtX,X;X'.^.^.^.^.!.!.!.T.T.E.XXXX.XoX=X=X1X4X9X9X9X6X1X[.r s v.^.g.*X#X: , #           ",
"      BXNXxXqX:X/.(.Y.Y.m.p.q.9.h z.;X,XtX%Xv.Z C Z ) v.H.W.^./././.}.|..X.XoX:X1X1X2X4X9X9X9X6X4X.Xu h 4.*XlXzXwX* , ,         ",
"      bXxXdX3X*X!.Y.Y.s.i.r.q.Y j n.'.,X} a i 2 2 2 > * * : V B./.|.|.XX.X;X=X2X2X5X6X6X9XaX9X9X6X4X|.j t.;X0XxXbXH.> ,         ",
"      lXaX0X3X;X^.Y.Z.s.r.r.t.P Y n.~.n.V C $.-.%.' D 7 > > 2 < H W.XX.X.X.XoX:X1X2X5X9XaXaX9X6X6X4X4Xd.t.XX0XdXzXxXl.=         ",
"      3X:X;X X/.R.Y.Z.a.r.q.9.j Y M.Q.K.L.].].].L.V.C.n.%.D p 7 4 H m.R.!.|.XXXXXXR.m.N.~.%X*X:X6X6X4X1X1.j.=XdXlXzXxX} =       ",
"      *X/.R.U.I.g.g.a.r.r.5.P j w.M.K.Q.].].Q.N.B.B.M.b.w.w.v.=.I Z y.A.U.!.U.a.y.V i 2 < * p ( G /.1X1X6.h.[.=X0XlXzXbXl       ",
"      R.I.g.g.s.s.d.r.7.6.P r j w.b.V.Q.Q.W.B.b.w.w. .X. . .[ w.v.b.b.N.A.W.S.p.[ V d 5 7 : : : a d ~.:XI.7.E.oX3XdXlXxXxX      ",
"      d.d.d.d.r.i.i.6.>.P r t L w.b.V.L.K.N.w.U n $.*.$.W V j J L w.n.V.W. X XT.q.0.3.e.w.y.m.Y.(.^.w.[ W.k f.j.oX6XdXxXCX      ",
"      i.5.5.5.5.5.3.P z t & n Y w.M.W.W.K.W.w.U J.;.q 2 W ;.) j J Y w.V.W.2X9X2Xr.^ 3.[ ^ ^ y.s.I.R./.(.B.u <.f.h.[.2X0XzX      ",
"      5.5.5.5.3.3.P z f 3 3 V [ w.W.^.;X'.^.Q.K.n.) B 5 5 I V V F ]  .x.!.6XaXdXh.Y K F F V V H.'.7.h.!.I.u >.f.h.D.D.E.{.      ",
"      5.3.3.3.>.P P z r : t J [ b./.5X5X8X;XR.p.y.y.X.] J K F F F Y z.V.>XnXzXzX3X5.f _ D * c &X{ P r.I.!.y j >.f.h.h.S.T.      ",
"      5.q.4.P e.,.>.,.[ f d L 9.N.+X5X5XpXpX5X:X!.q.[ [ ] ] ] [ z.x.V.'.sXbXfXvXaXE.z F K V a n.W.9.4.I./.z h P 7.d.g.I.U.      ",
"      ) 3 o t c.1.t.c.V.] K ] z.W.|.:X>X>X>X:X:X.X|.U.c.9.e.w.x.b.M.Q.>XsXjXaXfXfX4XXXP j k >.r.U.R.XX=X=Xi.r F P 5.d.g.Z.      ",
"      + o + ].1.@X'.A.W. .| v.n.V.'.+X+X+X+X@X|.E.!.!.U.G.t.t.c.B.W.'.yXjXyX7X7XfX6X7X:XS.a.a.h.h.{.1X4X0X*Xu l ^ 3.6.i.a.      ",
"      X . :.G.}.!.f.>.t. .%.C.L.L.Q.^.!.!.T.D.D.D.D.D.S.S.B.t.c.B.<XtX@X!.D.D.D.}.OX1X1XoXoX=X:X6X9XdXdXaX9Xy z ^ 6.6.7.7.      ",
"        X %.|.S.f.f.t.'.| ' =.C.L.Q.Q.Q.Q.W.F.A.A.A.A.G.G.B.c.e.,.W.,.u r M.p.t.,.>.}.oXoXoX-X2X4X6X9X6X4X4Xh.6.d.g.(.H.s.      ",
"        o ' +X+X<.<.t.'.%._ _ =.C.K.W.W.W.N.A.A.A.N.m.m.m.m.F.F.c.c.x.U | X.z.Y j P f.7XoXoXoXOX1X7X4X7X7X2X{.R.] ( & o o       ",
"        X D >X>XpX+XS.'.z.' ' %.C.H.K.K.N.N.A.A.A.N.b.w.x.M.K.Q.L.z.Y n t C K U F  .5XaXaX7X}.[.oXoXoX=X=XoX[.h.3 + X X o       ",
"        + & kXtX>XXXD.T.v.I I %.v.n.n.B.B.m.N.N.V.J K H K I ..U H C C n b v s H F U 3.E.1X1XE.j.j.E.[.[.{.XXh.E.y.+ X X         ",
"        8 9 &XtX}.D.h.h.b...%.=.-.=.&.v.b.M.V.M.J n a a n C I U I H C d m V t t J J L L p.(.q.3.r.h.g.j.E. Xk oX^.o X           ",
"          GXDXMX/.E.D.h.a.v.=.=.=...| | { o.v.n.H A n n ( %.v.&.z.w.9.Y P ,.e.,.e.x.w.[ L L K l ^ r.d.s.Y.K.k [.A.& +           ",
"          GXGXGXDXcXgXMXcXC.C.%.%.....{ _ ....%.( V d Z s d %.U &.| K f K K d t t F T L  .d r d l q.u.p.y.J P }./.Z             ",
"            GXGXJXJXJXJXFXL.L.C.=...` _ ( H ( %.$.H f U | t 3 3 1 i v n v b i 1 & D v B r n d V Q { ~ ~ u.l L 7.MXDX            ",
"                HXHXHX).L._.L.C.v...` ` _ ) ) %...Q J ] z.v.Y m y y f m m n d s ; & & t  .K f G { g l Q { z 6.a.mXDXDX          ",
"                HXHXHX$XL.eXn.P.=...( ( ( ( { %...J ] X.z.z.w.x.&.Y Y T T y y y u u Y m.Z.K l Q Q g F H G AXAXDXDXDX            ",
"                  HXHXJXeXuXH.L.C.%...( ) _ _ ` ..| | X.z.X. . . .z.z.,.,.,.,.t.G.S.S.S.s.L G J G g H Q uXDXDXDXDX              ",
"                  HXHXHXHXiXQ.v.=.=...) ) _ _ _ _ | | ]  .X.X. .J m f m F K J P P P 3.p.p.~ ] J l F g Q DXDXDX                  ",
"                    HXHXHXiX~.v.v.n.-.` ) ` ` ` _ ) ) ] X.X.X.&.&.| ) C s t s t h l 0.y.0.^ Q l g V V AXGXGX                    ",
"                    cXFXAXiX*Xy.{ %...` ` ..` ( ( ( ) _ |  .z.z.&.| U K d n a V ~ 0.y.0.} Q V V B a A S S                       ",
"                    ZXZXmXiX#XH.] ) _ ` ..` ` _ D v B C I ) | | ] J K H F G )  .w.H.B.u.~ G V V d A e +.                        ",
"                    LXKXLXMX<X(.b.{ ) ` ) ( ( Z D D D W ( ( H ) ) U U ) J J { X.u.b.B.u.~ H Z C J.KXKXKX                        ",
"                      KXKXZX<X!.s.u.} { ) ( H Z Z Z W D D Z C C I H I H V H J K ~ ~ { o.G V d :.LXKXKX                          ",
"                      W ' &X;XY.d.q.} ~ Q _ Z C v a b i i v p p v M p s a a a a a a ! C a s J.KXKXKXKX                          ",
"                      &X$X&X%XY.i.4.4.~ G d d d a b i i p 8 7 7 7 5 5 5 i 5 1 5 i 5 5 5 s H rXPXLXKXKX                          ",
"                      _._.&X%X(.i.q.0.^ ~ J G a s 7 7 4 5 4 8 7 5 ; < < ; < = < = = ; a J cXPXIXZX_.PX                          ",
"                      _._.$X%X!.s.q.0.^ ^ } { ~ J G V s 1 1 1 1 < ; ; = * & * * 1 a g F ^ iXhXPXcXDXiX                          ",
"                      eXrXrXuX XI.p.q.q.q.0.y.y.0.0.[ ] L J J G F m d n m n g g g l j z 4.<X8XdXqXk.                            ",
"                        LXLXJX;X/.Z.i.i.i.i.p.q.q.q.4.4.3.3.[ ^ [ ^ ~ L L J K l h P 8.4.2.2.2.k.                                ",
"                    KX      gX:XXXI.g.d.d.i.p.i.p.i.q.q.q.5.q.4.0.4.3.P P z z / 8./ / x x x                                     ",
"                                {.h.7.7.5.6.6.6.5.6.6.6.6.2.4.5.i.8.8.5.R 3.8.8.R x x                                           ",
"                                                                                                                                ",
"                                                                                                                                ",
"                                                                                                                                "
};
