/* XPM */
static char *_2c3656bb49d4822abcdc8b5e24b4f79g7dGC7TVKPP5OghY[] = {
/* columns rows colors chars-per-pixel */
"64 64 9 1 ",
"  c None",
". c black",
"X c #2D2D2D",
"o c #700606",
"O c #795548",
"+ c red",
"@ c #CDDC39",
"# c #FFEB3B",
"$ c white",
/* pixels */
"                                                                ",
"                                                                ",
"                                                                ",
"                                                                ",
"                                                                ",
"                                                                ",
"                 XXXXXXXXXXXXXXXXXXXXXXXXXXXXXXXXX              ",
"                 XXXXXXXXXXXXXXXXXXXXXXXXXXXXXXXXX              ",
"                 XXXXXXXXXXXXXXXXXXXXXXXXXXXXXXXXX              ",
"              XXX##############################@@@XXX           ",
"              XXX#######.###.###..#####.###.##.@@@XXX           ",
"              XXX###@@@#.###.###..#####.##.###.###XXX           ",
"              XXX###@@@##..#.##.#######.##.#..####XXX           ",
"              XXX######$$$$$$$$$$$##$$$$$$$$$$$@@@XXX           ",
"              XXX######$$$$$$$$$$$##$$$$$$$$$$$@@@XXX           ",
"              XXX######$$$$$$$$$$$##$$$$$$$$$$$@@@XXX           ",
"              XXX######$$$$$...$$$##$$$$$$..$$$###XXX           ",
"              XXX@@@###$$$$$...$$$##$$$$$$..$$$###XXX           ",
"              XXX@@@###$$$$$...$$$##$$X$$$..$$$###XXX           ",
"              XXX@@@###$$$$$...$$$##XX#X$$..$$$###XXX           ",
"              XXX@@@###$$$$$...$$$##XX#X$$..$$$###XXX           ",
"              XXX@@@###$$$$$$$$$$$XX###X$$$$$$$###XXX           ",
"              XXX######$X$$$$$$$$$####X$$$$$$$$###XXX           ",
"              XXX########XX#######XXXX#########@@@XXX           ",
"              XXX########XX####################@@@XXX           ",
"              XXX#######XXXX############XXX#######XXX           ",
"              XXX#######XXXX############XXX#######XXX           ",
"              XXX####@@@###XXXXXXXXXXXXXXX########XXX           ",
"             XXXXXX##@@@########$$$###$$#########XXXX           ",
"            X$$$XXX##@@@@#######$$$###$$######@@@XX$$X          ",
"            X$$$XXX##@@@@#####################@@@XX$$X          ",
"            X$$$XXX#################@@@#####@@@@@XX$$X          ",
"            X$$$XXX#################@@@#####@@@@@XX$$X          ",
"            X$$$XXX#################@@@@####@@@@@XXXXX          ",
"            XXXXXXX#################@@@@#########XX##X          ",
"             X##XXX$$$$$$$$$$$$$oo+o$$$$$$$$$$$$$XX##X          ",
"             X##XXX$$$$$$$$$$$$$oooo$$$$$$$$$$$$$XX##X          ",
"             X##XXXXXXXXO......Ooo+o..O....OXXXXXXX##X          ",
"             X##XXXXXXXXO......Ooo+o..O....OXXXXXXX##X          ",
"             X##XXXOOOOOOOOOOOOOoo++ooOOOOOOOOOOOXX##X          ",
"             X##XXXOOOOOOOOOOOOOOOo+ooOOOOOOOOOOOXX##X          ",
"          XXXX##XXXOOOOOOOOOOOOOOOOoOOOOOOOOOOOOOXX##X          ",
"         X####XXXXXOOOOOOOOOOOOOOOOOOOOOOOOOOOOOOXXXX           ",
"         X###X  XXXXXXXOOOOXXXXXXXXXXXXXXXXOOOOXXXX             ",
"         X###X  XXXXXXXOOOOXXXXXXXXXXXXXXXXOOOOXXXX             ",
"          XXX   XXXXXXXOOOOXXXXXXXXXXXXXXXXOOOOXXXX             ",
"                    XXXOOOOXX           XXXOOOOXXX              ",
"                    XXXXXXXXX           XXXXXXXXXX              ",
"                     XX##XX               X###X                 ",
"                     XX$$XX               X$$$X                 ",
"                     XX$$XX               X$$$X                 ",
"                     XX$$XX               X$$$X                 ",
"                     XX$$XX               X$$$X                 ",
"                     XXXXXX               XXXXX                 ",
"                     XX..XXXX             X...XXXX              ",
"                     XX.X...$XX           X.XX...$X             ",
"                     XX.X...$XX           X.XX...$X             ",
"                     XX......XX           X.......X             ",
"                     XXXXXXXX             XXXXXXXX              ",
"                                                                ",
"                                                                ",
"                                                                ",
"                                                                ",
"                                                                "
};
