/* XPM */
static char *d74071c20ce84d48f39981fb5ff9d47eeD09jgTFBJpfu2wy[] = {
/* columns rows colors chars-per-pixel */
"64 64 9 1 ",
"  c None",
". c black",
"X c #2D2D2D",
"o c #700606",
"O c #795548",
"+ c red",
"@ c #CDDC39",
"# c #FFEB3B",
"$ c white",
/* pixels */
"                                                                ",
"                                                                ",
"                                                                ",
"                                                                ",
"                                                                ",
"                                                                ",
"              XXXXXXXXXXXXXXXXXXXXXXXXXXXXXXXXX                 ",
"              XXXXXXXXXXXXXXXXXXXXXXXXXXXXXXXXX                 ",
"              XXXXXXXXXXXXXXXXXXXXXXXXXXXXXXXXX                 ",
"           XXX@@@##############################XXX              ",
"           XXX@@@.##.###.#####..###.###.#######XXX              ",
"           XXX###.###.##.#####..###.###.#@@@###XXX              ",
"           XXX####..#.##.#######.##.#..##@@@###XXX              ",
"           XXX@@@$$$$$$$$$$$##$$$$$$$$$$$######XXX              ",
"           XXX@@@$$$$$$$$$$$##$$$$$$$$$$$######XXX              ",
"           XXX@@@$$$$$$$$$$$##$$$$$$$$$$$######XXX              ",
"           XXX###$$$..$$$$$$##$$$...$$$$$######XXX              ",
"           XXX###$$$..$$$$$$##$$$...$$$$$###@@@XXX              ",
"           XXX###$$$..$$$X$$##$$$...$$$$$###@@@XXX              ",
"           XXX###$$$..$$X#XX##$$$...$$$$$###@@@XXX              ",
"           XXX###$$$..$$X#XX##$$$...$$$$$###@@@XXX              ",
"           XXX###$$$$$$$X###XX$$$$$$$$$$$###@@@XXX              ",
"           XXX###$$$$$$$$X####$$$$$$$$$X$######XXX              ",
"           XXX@@@#########XXXX#######XX########XXX              ",
"           XXX@@@####################XX########XXX              ",
"           XXX#######XXX############XXXX#######XXX              ",
"           XXX#######XXX############XXXX#######XXX              ",
"           XXX########XXXXXXXXXXXXXXX###@@@####XXX              ",
"           XXXX#########$$###$$$########@@@##XXXXXX             ",
"          X$$XX@@@######$$###$$$#######@@@@##XXX$$$X            ",
"          X$$XX@@@#####################@@@@##XXX$$$X            ",
"          X$$XX@@@@@#####@@@#################XXX$$$X            ",
"          X$$XX@@@@@#####@@@#################XXX$$$X            ",
"          XXXXX@@@@@####@@@@#################XXX$$$X            ",
"          X##XX#########@@@@#################XXXXXXX            ",
"          X##XX$$$$$$$$$$$$$o+oo$$$$$$$$$$$$$XXX##X             ",
"          X##XX$$$$$$$$$$$$$oooo$$$$$$$$$$$$$XXX##X             ",
"          X##XXXXXXXO....O..o+ooO......OXXXXXXXX##X             ",
"          X##XXXXXXXO....O..o+ooO......OXXXXXXXX##X             ",
"          X##XXOOOOOOOOOOOoo++ooOOOOOOOOOOOOOXXX##X             ",
"          X##XXOOOOOOOOOOOoo+oOOOOOOOOOOOOOOOXXX##X             ",
"          X##XXOOOOOOOOOOOOOoOOOOOOOOOOOOOOOOXXX##XXXX          ",
"           XXXXOOOOOOOOOOOOOOOOOOOOOOOOOOOOOOXXXXX####X         ",
"             XXXXOOOOXXXXXXXXXXXXXXXXOOOOXXXXXXX  X###X         ",
"             XXXXOOOOXXXXXXXXXXXXXXXXOOOOXXXXXXX  X###X         ",
"             XXXXOOOOXXXXXXXXXXXXXXXXOOOOXXXXXXX   XXX          ",
"              XXXOOOOXXX           XXOOOOXXX                    ",
"              XXXXXXXXXX           XXXXXXXXX                    ",
"                 X###X               XX##XX                     ",
"                 X$$$X               XX$$XX                     ",
"                 X$$$X               XX$$XX                     ",
"                 X$$$X               XX$$XX                     ",
"                 X$$$X               XX$$XX                     ",
"                 XXXXX               XXXXXX                     ",
"              XXXX...X             XXXX..XX                     ",
"             X$...XX.X           XX$...X.XX                     ",
"             X$...XX.X           XX$...X.XX                     ",
"             X.......X           XX......XX                     ",
"              XXXXXXXX             XXXXXXXX                     ",
"                                                                ",
"                                                                ",
"                                                                ",
"                                                                ",
"                                                                "
};
